%TF.GenerationSoftware,KiCad,Pcbnew,10.0.3*%
%TF.CreationDate,2026-05-30T14:10:45+05:30*%
%TF.ProjectId,Mini Inverter,4d696e69-2049-46e7-9665-727465722e6b,rev?*%
%TF.SameCoordinates,Original*%
%TF.FileFunction,Soldermask,Top*%
%TF.FilePolarity,Negative*%
%FSLAX46Y46*%
G04 Gerber Fmt 4.6, Leading zero omitted, Abs format (unit mm)*
G04 Created by KiCad (PCBNEW 10.0.3) date 2026-05-30 14:10:45*
%MOMM*%
%LPD*%
G01*
G04 APERTURE LIST*
G04 Aperture macros list*
%AMRoundRect*
0 Rectangle with rounded corners*
0 $1 Rounding radius*
0 $2 $3 $4 $5 $6 $7 $8 $9 X,Y pos of 4 corners*
0 Add a 4 corners polygon primitive as box body*
4,1,4,$2,$3,$4,$5,$6,$7,$8,$9,$2,$3,0*
0 Add four circle primitives for the rounded corners*
1,1,$1+$1,$2,$3*
1,1,$1+$1,$4,$5*
1,1,$1+$1,$6,$7*
1,1,$1+$1,$8,$9*
0 Add four rect primitives between the rounded corners*
20,1,$1+$1,$2,$3,$4,$5,0*
20,1,$1+$1,$4,$5,$6,$7,0*
20,1,$1+$1,$6,$7,$8,$9,0*
20,1,$1+$1,$8,$9,$2,$3,0*%
G04 Aperture macros list end*
%ADD10C,2.000000*%
%ADD11RoundRect,0.250000X0.750000X-0.750000X0.750000X0.750000X-0.750000X0.750000X-0.750000X-0.750000X0*%
%ADD12C,1.620000*%
%ADD13RoundRect,0.250000X-0.750000X-0.750000X0.750000X-0.750000X0.750000X0.750000X-0.750000X0.750000X0*%
%ADD14C,1.600000*%
%ADD15R,1.800000X1.800000*%
%ADD16C,1.800000*%
%ADD17C,1.400000*%
%ADD18R,1.905000X2.000000*%
%ADD19O,1.905000X2.000000*%
%ADD20RoundRect,0.250000X-0.550000X-0.550000X0.550000X-0.550000X0.550000X0.550000X-0.550000X0.550000X0*%
%ADD21RoundRect,0.249999X-0.850001X0.850001X-0.850001X-0.850001X0.850001X-0.850001X0.850001X0.850001X0*%
%ADD22C,2.200000*%
G04 APERTURE END LIST*
D10*
%TO.C,BT1*%
X31000000Y-23500000D03*
D11*
X31000000Y-26040000D03*
%TD*%
D10*
%TO.C,T1*%
X73782500Y-24685000D03*
X73782500Y-27225000D03*
X73782500Y-29765000D03*
X73782500Y-32305000D03*
D11*
X73782500Y-34845000D03*
%TD*%
D12*
%TO.C,10K1*%
X38782500Y-23265000D03*
X41282500Y-25765000D03*
X43782500Y-23265000D03*
%TD*%
D10*
%TO.C,D1*%
X66822500Y-25765000D03*
D13*
X64282500Y-25765000D03*
%TD*%
D14*
%TO.C,C4*%
X42032500Y-29265000D03*
X44532500Y-29265000D03*
%TD*%
D15*
%TO.C,D3*%
X30007500Y-43765000D03*
D16*
X32547500Y-43765000D03*
%TD*%
D17*
%TO.C,R4*%
X59382500Y-31265000D03*
X61282500Y-31265000D03*
%TD*%
D18*
%TO.C,Q2*%
X66242500Y-43265000D03*
D19*
X68782500Y-43265000D03*
X71322500Y-43265000D03*
%TD*%
D20*
%TO.C,C3*%
X42782500Y-35765000D03*
D14*
X45282500Y-35765000D03*
%TD*%
D17*
%TO.C,R6*%
X66782500Y-35165000D03*
X66782500Y-33265000D03*
%TD*%
%TO.C,R3*%
X58877500Y-35765000D03*
X60777500Y-35765000D03*
%TD*%
%TO.C,R1*%
X51377500Y-35765000D03*
X53277500Y-35765000D03*
%TD*%
%TO.C,R7*%
X44282500Y-42365000D03*
X44282500Y-44265000D03*
%TD*%
D14*
%TO.C,C1*%
X30032500Y-33265000D03*
X32532500Y-33265000D03*
%TD*%
D18*
%TO.C,Q1*%
X51242500Y-43265000D03*
D19*
X53782500Y-43265000D03*
X56322500Y-43265000D03*
%TD*%
D17*
%TO.C,R5*%
X59282500Y-24860000D03*
X59282500Y-26760000D03*
%TD*%
D20*
%TO.C,U1*%
X48472500Y-23455000D03*
D14*
X48472500Y-25995000D03*
X48472500Y-28535000D03*
X48472500Y-31075000D03*
X56092500Y-31075000D03*
X56092500Y-28535000D03*
X56092500Y-25995000D03*
X56092500Y-23455000D03*
%TD*%
D21*
%TO.C,D2*%
X37782500Y-35105000D03*
D22*
X37782500Y-45265000D03*
%TD*%
D14*
%TO.C,C2*%
X37782500Y-29515000D03*
X37782500Y-32015000D03*
%TD*%
M02*
